<?xml version="1.0" encoding="utf-8"?><svg xmlns="http://www.w3.org/2000/svg" xmlns:xlink="http://www.w3.org/1999/xlink" width="1536" height="746" preserveAspectRatio="xMidYMid" viewBox="0 0 1536 746" style="z-index:1;margin-right:-2px;display:block;background-repeat-y:initial;background-repeat-x:initial;background-color:rgb(27, 33, 36);animation-play-state:paused" ><g transform="translate(768,373) scale(1,1) translate(-768,-373)" style="transform:matrix(1, 0, 0, 1, 0, 0);animation-play-state:paused" ><defs style="animation-play-state:paused" ><path id="path-5iswgp2dedi-1" d="M-35 -35L35 -35L35 35L-35 35Z" fill="none" stroke="inherit" stroke-width="4.333333333333334" transform="scale(0.3)" style="transform:matrix(0.3, 0, 0, 0.3, 0, 0);animation-play-state:paused" ></path>

  
<path id="path-5iswgp2dedi-2" d="M0 -37A37 37 0 0 1 0 37A37 37 0 0 1 0 -37" fill="none" stroke="inherit" stroke-width="4.333333333333334" transform="scale(0.3)" style="transform:matrix(0.3, 0, 0, 0.3, 0, 0);animation-play-state:paused" ></path>

  
<path id="path-5iswgp2dedi-3" d="M0 -34.641L40 34.641L-40 34.641Z" fill="none" stroke="inherit" stroke-width="4.333333333333334" transform="scale(0.3)" style="transform:matrix(0.3, 0, 0, 0.3, 0, 0);animation-play-state:paused" ></path></defs>
<path id="path0" d="M 114.00714745469182 355.6027828020364
c 0 32.48682393832882 -7.948903729591094 9.331321769519981 -17.280225499111076 9.331321769519981
S 79.44669645646965 388.08960674036524 79.44669645646965 355.6027828020364
s 7.948903729591094 -9.331321769519981 17.280225499111076 -9.331321769519981
S 114.00714745469182 323.1159588637076 114.00714745469182 355.6027828020364
z" fill="none" stroke="none" style="animation-play-state:paused" ></path>


<use xlink:href="#path-5iswgp2dedi-3" x="0" y="0" stroke="#edb870" transform="translate(106.24630737304688 370.50555419921875)" style="animation-play-state:paused" ></use>
<path id="path1" d="M 161.73936657591673 180.64165495389156
c 0 63.38670991395112 -15.509514127881657 18.206820932730643 -33.7163350606123 18.206820932730643
S 94.30669645469214 244.0283648678427 94.30669645469214 180.64165495389156
s 15.509514127881657 -18.206820932730643 33.7163350606123 -18.206820932730643
S 161.73936657591673 117.25494503994044 161.73936657591673 180.64165495389156
z" fill="none" stroke="none" style="animation-play-state:paused" ></path>


<use xlink:href="#path-5iswgp2dedi-1" x="0" y="0" stroke="#f7d8b4" transform="translate(107.74808502197266 211.13612365722656)" style="animation-play-state:paused" ></use>
<path id="path2" d="M 259.40009147097715 419.6464448340449
c 0 51.718199668638334 -12.654453110411504 14.855227564396117 -27.509680674807623 14.855227564396117
S 204.38073012136192 471.3646445026833 204.38073012136192 419.6464448340449
s 12.654453110411504 -14.855227564396117 27.509680674807623 -14.855227564396117
S 259.40009147097715 367.92824516540657 259.40009147097715 419.6464448340449
z" fill="none" stroke="none" style="animation-play-state:paused" ></path>


<use xlink:href="#path-5iswgp2dedi-2" x="0" y="0" stroke="#fdf4af" transform="translate(222.67642211914062 438.3981628417969)" style="animation-play-state:paused" ></use>
<path id="path3" d="M 387.4995217804776 344.49263268254
c 0 60.51570211147099 -14.807033495359923 17.38216975542252 -32.18920325078244 17.38216975542252
S 323.1211152789127 405.008334794011 323.1211152789127 344.49263268254
s 14.807033495359923 -17.38216975542252 32.18920325078244 -17.38216975542252
S 387.4995217804776 283.976930571069 387.4995217804776 344.49263268254
z" fill="none" stroke="none" style="animation-play-state:paused" ></path>


<use xlink:href="#path-5iswgp2dedi-3" x="0" y="0" stroke="#fdf4af" transform="translate(328.6175231933594 376.5456848144531)" style="animation-play-state:paused" ></use>
<path id="path4" d="M 434.05745597137945 136.99101188855695
c 0 49.47746204337392 -12.106187521251064 14.211611437990381 -26.317798959241443 14.211611437990381
S 381.4218580528966 186.46847393193087 381.4218580528966 136.99101188855695
s 12.106187521251064 -14.211611437990381 26.317798959241443 -14.211611437990381
S 434.05745597137945 87.51354984518304 434.05745597137945 136.99101188855695
z" fill="none" stroke="none" style="animation-play-state:paused" ></path>


<use xlink:href="#path-5iswgp2dedi-1" x="0" y="0" stroke="#edb870" transform="translate(406.6336669921875 151.27235412597656)" style="animation-play-state:paused" ></use>
<path id="path5" d="M 532.5237293032046 185.49316818168558
c 0 22.313864815053755 -5.4597754334705995 6.409301595813313 -11.869077029283911 6.409301595813313
S 508.78557524463685 207.80703299673934 508.78557524463685 185.49316818168558
s 5.4597754334705995 -6.409301595813313 11.869077029283911 -6.409301595813313
S 532.5237293032046 163.1793033666318 532.5237293032046 185.49316818168558
z" fill="none" stroke="none" style="animation-play-state:paused" ></path>


<use xlink:href="#path-5iswgp2dedi-2" x="0" y="0" stroke="#edb870" transform="translate(531.6880493164062 195.5615234375)" style="animation-play-state:paused" ></use>
<path id="path6" d="M 591.3422133065204 601.3998486264189
c 0 29.095590617075835 -7.119133874390895 8.3572441134154 -15.476377987806295 8.3572441134154
S 560.3894573309079 630.4954392434947 560.3894573309079 601.3998486264189
s 7.119133874390895 -8.3572441134154 15.476377987806295 -8.3572441134154
S 591.3422133065204 572.3042580093431 591.3422133065204 601.3998486264189
z" fill="none" stroke="none" style="animation-play-state:paused" ></path>


<use xlink:href="#path-5iswgp2dedi-2" x="0" y="0" stroke="#edb870" transform="translate(580.4996337890625 611.550537109375)" style="animation-play-state:paused" ></use>
<path id="path7" d="M 636.9494898117769 255.1066370347747
c 0 56.82585495681945 -13.904198553264331 16.322320040788565 -30.226518594052898 16.322320040788565
S 576.4964526236711 311.93249199159413 576.4964526236711 255.1066370347747
s 13.904198553264331 -16.322320040788565 30.226518594052898 -16.322320040788565
S 636.9494898117769 198.28078207795525 636.9494898117769 255.1066370347747
z" fill="none" stroke="none" style="animation-play-state:paused" ></path>


<use xlink:href="#path-5iswgp2dedi-3" x="0" y="0" stroke="#f7d8b4" transform="translate(636.387451171875 271.3829345703125)" style="animation-play-state:paused" ></use>
<path id="path8" d="M 752.6107237983261 654.090532146527
c 0 46.85552150330307 -11.464648878467774 13.458500857331735 -24.92314973579951 13.458500857331735
S 702.7644243267272 700.9460536498301 702.7644243267272 654.090532146527
s 11.464648878467774 -13.458500857331735 24.92314973579951 -13.458500857331735
S 752.6107237983261 607.235010643224 752.6107237983261 654.090532146527
z" fill="none" stroke="none" style="animation-play-state:paused" ></path>


<use xlink:href="#path-5iswgp2dedi-1" x="0" y="0" stroke="#f7d8b4" transform="translate(751.8361206054688 670.3926391601562)" style="animation-play-state:paused" ></use>
<path id="path9" d="M 852.3528319846188 718.8284967913905
c 0 33.85198590147049 -8.282932720572566 9.723442758933013 -18.00637547950558 9.723442758933013
S 816.3400810256077 752.680482692861 816.3400810256077 718.8284967913905
s 8.282932720572566 -9.723442758933013 18.00637547950558 -9.723442758933013
S 852.3528319846188 684.9765108899201 852.3528319846188 718.8284967913905
z" fill="none" stroke="none" style="animation-play-state:paused" ></path>


<use xlink:href="#path-5iswgp2dedi-3" x="0" y="0" stroke="#f7d8b4" transform="translate(850.1190185546875 736.1036376953125)" style="animation-play-state:paused" ></use>
<path id="path10" d="M 890.0495707958936 403.402306937771
c 0 53.358982160686054 -13.055921166976372 15.326516152537483 -28.382437319513855 15.326516152537483
S 833.2846961568658 456.76128909845704 833.2846961568658 403.402306937771
s 13.055921166976372 -15.326516152537483 28.382437319513855 -15.326516152537483
S 890.0495707958936 350.043324777085 890.0495707958936 403.402306937771
z" fill="none" stroke="none" style="animation-play-state:paused" ></path>


<use xlink:href="#path-5iswgp2dedi-2" x="0" y="0" stroke="#fdf4af" transform="translate(855.2919921875 420.667236328125)" style="animation-play-state:paused" ></use>
<path id="path11" d="M 967.7084551495232 39.86352711165368
c 0 59.354898760759475 -14.523007143590084 17.04874751638836 -31.571754659978446 17.04874751638836
S 904.5649458295663 99.21842587241315 904.5649458295663 39.86352711165368
s 14.523007143590084 -17.04874751638836 31.571754659978446 -17.04874751638836
S 967.7084551495232 -19.491371649105794 967.7084551495232 39.86352711165368
z" fill="none" stroke="none" style="animation-play-state:paused" ></path>


<use xlink:href="#path-5iswgp2dedi-2" x="0" y="0" stroke="#fdf4af" transform="translate(966.615478515625 61.320289611816406)" style="animation-play-state:paused" ></use>
<path id="path12" d="M 1033.5122565946488 630.1888629082224
c 0 24.779814002805644 -6.063145979409891 7.117606149742047 -13.180752129151937 7.117606149742047
S 1007.1507523363448 654.9686769110281 1007.1507523363448 630.1888629082224
s 6.063145979409891 -7.117606149742047 13.180752129151937 -7.117606149742047
S 1033.5122565946488 605.4090489054167 1033.5122565946488 630.1888629082224
z" fill="none" stroke="none" style="animation-play-state:paused" ></path>


<use xlink:href="#path-5iswgp2dedi-1" x="0" y="0" stroke="#fdf4af" transform="translate(1021.210205078125 637.393310546875)" style="animation-play-state:paused" ></use>
<path id="path13" d="M 1152.004131009603 39.714657212732966
c 0 20.955932274862988 -5.127515343849454 6.019257142779795 -11.14677248662925 6.019257142779795
S 1129.7105860363445 60.670589487595954 1129.7105860363445 39.714657212732966
s 5.127515343849454 -6.019257142779795 11.14677248662925 -6.019257142779795
S 1152.004131009603 18.758724937869978 1152.004131009603 39.714657212732966
z" fill="none" stroke="none" style="animation-play-state:paused" ></path>


<use xlink:href="#path-5iswgp2dedi-3" x="0" y="0" stroke="#f7d8b4" transform="translate(1151.3314208984375 48.77357482910156)" style="animation-play-state:paused" ></use>
<path id="path14" d="M 1269.0902302027935 462.54872287985927
c 0 32.09862940073494 -7.853919959754292 9.219819083189824 -17.073739042944116 9.219819083189824
S 1234.942752116905 494.6473522805942 1234.942752116905 462.54872287985927
s 7.853919959754292 -9.219819083189824 17.073739042944116 -9.219819083189824
S 1269.0902302027935 430.45009347912435 1269.0902302027935 462.54872287985927
z" fill="none" stroke="none" style="animation-play-state:paused" ></path>


<use xlink:href="#path-5iswgp2dedi-3" x="0" y="0" stroke="#edb870" transform="translate(1250.9749755859375 471.86297607421875)" style="animation-play-state:paused" ></use>
<path id="path15" d="M 1353.395744023999 442.8682769741551
c 0 36.504253809914346 -8.931891889659893 10.48526439220944 -19.41715628186933 10.48526439220944
S 1314.56143146026 479.37253078406945 1314.56143146026 442.8682769741551
s 8.931891889659893 -10.48526439220944 19.41715628186933 -10.48526439220944
S 1353.395744023999 406.36402316424073 1353.395744023999 442.8682769741551
z" fill="none" stroke="none" style="animation-play-state:paused" ></path>


<use xlink:href="#path-5iswgp2dedi-1" x="0" y="0" stroke="#fdf4af" transform="translate(1353.392333984375 444.0227355957031)" style="animation-play-state:paused" ></use>
<path id="path16" d="M 1399.2370058518468 179.16465432723282
c 0 56.7919816238373 -13.895910397321892 16.31259046642135 -30.208500863743243 16.31259046642135
S 1338.8200041243604 235.95663595107013 1338.8200041243604 179.16465432723282
s 13.895910397321892 -16.31259046642135 30.208500863743243 -16.31259046642135
S 1399.2370058518468 122.37267270339552 1399.2370058518468 179.16465432723282
z" fill="none" stroke="none" style="animation-play-state:paused" ></path>


<use xlink:href="#path-5iswgp2dedi-2" x="0" y="0" stroke="#f7d8b4" transform="translate(1369.5882568359375 195.4930877685547)" style="animation-play-state:paused" ></use>
<path id="path17" d="M 1539.5449752483055 44.91300919571105
c 0 54.22467914438421 -13.267740641711029 15.57517379679121 -28.842914438502238 15.57517379679121
S 1481.859146371301 99.13768834009525 1481.859146371301 44.91300919571105
s 13.267740641711029 -15.57517379679121 28.842914438502238 -15.57517379679121
S 1539.5449752483055 -9.311669948673163 1539.5449752483055 44.91300919571105
z" fill="none" stroke="none" style="animation-play-state:paused" ></path>


<use xlink:href="#path-5iswgp2dedi-2" x="0" y="0" stroke="#f7d8b4" transform="translate(1529.3525390625 71.9997787475586)" style="animation-play-state:paused" ></use></g></svg>